<?xml version="1.0" encoding="UTF-8" standalone="no"?>
<svg
   xmlns:dc="http://purl.org/dc/elements/1.1/"
   xmlns:cc="http://creativecommons.org/ns#"
   xmlns:rdf="http://www.w3.org/1999/02/22-rdf-syntax-ns#"
   xmlns:svg="http://www.w3.org/2000/svg"
   xmlns="http://www.w3.org/2000/svg"
   xmlns:sodipodi="http://sodipodi.sourceforge.net/DTD/sodipodi-0.dtd"
   xmlns:inkscape="http://www.inkscape.org/namespaces/inkscape"
   width="1920px"
   height="1080px"
   viewBox="0 0 1920 1080"
   version="1.1"
   id="SVGRoot"
   sodipodi:docname="desertCactus.svg"
   inkscape:version="1.0.2 (e86c8708, 2021-01-15)">
  <defs
     id="defs18" />
  <sodipodi:namedview
     id="base"
     pagecolor="#ffffff"
     bordercolor="#666666"
     borderopacity="1.0"
     inkscape:pageopacity="0.0"
     inkscape:pageshadow="2"
     inkscape:zoom="0.33320769"
     inkscape:cx="1052.9845"
     inkscape:cy="491.88511"
     inkscape:document-units="px"
     inkscape:current-layer="layer1"
     inkscape:document-rotation="0"
     showgrid="false"
     inkscape:window-width="1440"
     inkscape:window-height="872"
     inkscape:window-x="0"
     inkscape:window-y="91"
     inkscape:window-maximized="0" />
  <metadata
     id="metadata21">
    <rdf:RDF>
      <cc:Work
         rdf:about="">
        <dc:format>image/svg+xml</dc:format>
        <dc:type
           rdf:resource="http://purl.org/dc/dcmitype/StillImage" />
        <dc:title></dc:title>
      </cc:Work>
    </rdf:RDF>
  </metadata>
  <g
     inkscape:groupmode="layer"
     id="layer7"
     inkscape:label="Layer 5">
    <ellipse
       style="fill:#ffff00"
       id="path89"
       cx="763.7879"
       cy="279.10519"
       rx="64.524323"
       ry="72.027145" />
  </g>
  <g
     inkscape:groupmode="layer"
     id="layer6"
     inkscape:label="Layer 4">
    <path
       style="fill:#d45500;stroke:#000000;stroke-width:1px;stroke-linecap:butt;stroke-linejoin:miter;stroke-opacity:1"
       d="m 1872.8189,423.58784 c 0,0 -42.0159,-447.168539 -135.0509,-396.149309 -93.0351,51.019232 21.0079,45.016962 -90.034,123.046369 -111.0418,78.02942 -291.1097,504.19004 -363.1368,237.08937 -72.0272,-267.10068 -60.0227,-3.00113 -99.0374,-18.00679 -39.0147,-15.00565 24.0091,255.09615 -123.0464,237.08937 -147.05535,-18.00679 -273.10285,0 -279.10515,-30.01132 -6.0023,-30.01131 39.0147,-63.02375 -75.0283,-6.00226 -114.043,57.02149 -69.026,243.0916 -123.0464,183.069 C 531.31325,693.68965 399.26343,492.61385 351.24534,606.65684 303.22725,720.69983 333.23856,972.79487 333.23856,972.79487 Z"
       id="path65" />
  </g>
  <g
     inkscape:groupmode="layer"
     id="layer4"
     inkscape:label="Layer 3"
     style="display:inline">
    <path
       style="fill:#d38d5f;stroke:#000000;stroke-width:1px;stroke-linecap:butt;stroke-linejoin:miter;stroke-opacity:1"
       d="m 3.0011278,519.19569 c 0,0 36.0135832,-423.1595 63.0237632,-381.14367 27.01018,42.01584 27.01018,-123.04637 45.016959,-54.02036 18.00679,69.02602 12.00453,-102.038464 36.01358,-66.02488 24.00905,36.01357 9.00339,198.07466 30.01131,150.05656 21.00792,-48.0181 36.01357,-183.069 45.01697,-114.04299 9.00339,69.02602 0,378.14253 21.00792,348.13122 21.00791,-30.01131 45.01696,-183.069 69.02601,-132.04977 24.00905,51.01923 78.02941,375.1414 78.02941,375.1414 L 4.0891878,707.08413 Z"
       id="path35" />
  </g>
  <g
     inkscape:groupmode="layer"
     id="layer3"
     inkscape:label="Layer 2"
     style="display:inline">
    <path
       style="fill:#800000;stroke:#000000;stroke-width:1px;stroke-linecap:butt;stroke-linejoin:miter;stroke-opacity:1"
       d="m 936.35293,759.28619 c 0,0 189.07127,-300.11312 384.14477,-279.1052 195.0736,21.00792 585.2206,-201.07579 585.2206,-201.07579 l 15.0057,435.16402 -120.0453,288.10858 -882.33256,18.0068 z"
       id="path41" />
  </g>
  <g
     inkscape:label="Layer 1"
     inkscape:groupmode="layer"
     id="layer1"
     style="display:inline">
    <path
       style="fill:none;stroke:#000000;stroke-width:1px;stroke-linecap:butt;stroke-linejoin:miter;stroke-opacity:1"
       d="m 1920.724,714.26922 c -29.1507,14.57534 -40.6551,46.11051 -66.0249,63.02376 -6.3391,4.22606 -14.348,5.30345 -21.0079,9.00339 -23.5914,13.10633 -48.2213,23.41047 -72.0272,36.01358 -6.3755,3.37525 -11.1631,9.72331 -18.0068,12.00452 -6.9091,2.30304 -13.8425,-4.69946 -21.0079,-6.00226 -6.9596,-1.26539 -14.0053,-2.00076 -21.0079,-3.00113 -7.0027,-1.00038 -13.9888,-2.12375 -21.0079,-3.00113 -3.7116,-0.46395 -8.8729,1.39183 -12.0046,0 -6.592,-2.92981 -11.5545,-8.77841 -18.0067,-12.00453 -3.6893,-1.8446 -8.5069,-0.81506 -12.0046,-3.00113 -4.7988,-2.99926 -7.3996,-8.71531 -12.0045,-12.00452 -2.5742,-1.83873 -6.1739,-1.58639 -9.0034,-3.00114 -9.8982,-4.94908 -19.979,-15.43439 -30.0113,-21.00791 -24.0629,-13.36828 0.9651,1.86248 -36.0136,-12.00453 -43.4045,-16.27669 -33.4963,-27.01018 -84.0316,-27.01018 -20.3418,0 -45.9704,-4.01091 -66.0249,0 -6.2041,1.24082 -11.7287,5.2175 -18.0068,6.00226 -10.84,1.355 -32.5783,-2.65281 -45.017,3.00113 -23.9568,10.88945 -17.5287,16.91494 -39.0147,36.01358 -10.1697,9.03973 -22.0584,15.93763 -33.0124,24.00905 -42.3315,31.1916 -86.2566,57.44515 -141.0532,54.02036 -77.2487,-4.82805 -67.2005,-18.26852 -135.05091,-60.02262 -30.53683,-18.7919 -59.8754,-29.5787 -87.0328,-54.02037 -11.56731,-10.41057 -22.0083,-22.00829 -33.01244,-33.01244 -3.00114,-6.00226 -4.25819,-13.26158 -9.0034,-18.00679 -2.12212,-2.12212 -6.00226,0 -9.00339,0 -6.00226,0 -12.01622,-0.37441 -18.00679,0 -13.83783,0.86487 -62.62738,6.56642 -72.02715,9.0034 -36.37668,9.43099 -56.1147,29.02029 -96.0362,33.01244 -20.99824,2.09983 -42.2079,-2.53295 -63.02375,-6.00226 -71.62778,-11.93796 -137.99232,-36.70041 -201.07579,-72.02715 -15.26838,-8.55029 -30.37046,-17.43362 -45.01697,-27.01018 -11.38831,-7.4462 -20.84233,-17.92399 -33.01244,-24.00905 -22.90129,-11.45065 -78.98388,-4.82258 -93.03507,-3.00113 -101.54316,13.163 -153.951465,33.8364 -228.0859688,105.03959 0,363.13687 0,366.13797 0,366.13797 H 1911.7206 Z"
       id="path31" />
    <path
       style="fill:#550000;stroke:none;stroke-width:3.00113"
       d="M 4.0891878,888.3435 V 707.08413 L 24.346823,689.36624 C 62.26228,656.20433 96.23372,635.66465 135.6397,622.07677 c 24.49469,-8.44621 92.5493,-20.46361 128.25855,-22.6485 40.60855,-2.48465 53.20451,0.96236 83.53451,22.86007 88.54105,63.92503 214.4259,109.13505 304.90076,109.50141 l 37.51414,0.15192 32.14161,-14.19867 c 38.05107,-16.8092 46.02808,-18.76792 96.01972,-23.57717 39.77961,-3.82686 47.40485,-2.47751 47.40485,8.38873 0,7.01985 31.79791,38.34969 55.06217,54.25163 11.80666,8.07027 32.95789,20.87126 47.00273,28.44664 14.04481,7.57538 38.13876,22.69358 53.54216,33.596 35.2978,24.98354 45.8393,30.32618 67.8733,34.39939 25.0381,4.62854 66.3499,4.06081 86.5045,-1.18879 9.4243,-2.45472 26.927,-9.36959 38.895,-15.36638 30.3689,-15.21702 87.0805,-55.9996 100.2916,-72.122 6.0704,-7.4082 15.1933,-15.66649 20.2731,-18.35176 12.3768,-6.54264 52.694,-10.43075 112.7749,-10.87577 l 49.5187,-0.36678 24.5651,12.74238 c 13.5109,7.00831 32.418,14.78332 42.0159,17.2778 9.5978,2.49448 22.8527,8.59244 29.4552,13.55103 6.6024,4.9586 16.056,11.21631 21.0079,13.90604 4.9518,2.68973 12.8209,8.07668 17.4868,11.971 4.6658,3.89433 10.6367,7.08059 13.2687,7.08059 2.632,0 7.2531,2.23318 10.2691,4.96263 3.3062,2.9921 18.8917,7.2063 39.251,10.61315 18.572,3.10778 38.2168,6.43142 43.6549,7.38586 6.6824,1.17282 11.5467,0.24352 15.0057,-2.86682 5.7413,-5.16252 95.0776,-50.10613 99.5981,-50.10613 1.5944,0 10.0246,-7.66696 18.7338,-17.03768 33.0172,-35.52523 44.4627,-46.86935 45.8691,-45.46286 0.7987,0.79868 -0.5574,76.97382 -3.0135,169.27809 -2.4562,92.30429 -4.4762,170.86458 -4.489,174.57848 l -0.023,6.7526 H 956.94834 4.0891878 Z"
       id="path33" />
  </g>
  <g
     inkscape:groupmode="layer"
     id="layer8"
     inkscape:label="Layer 6"
     style="display:inline">
    <path
       style="fill:none;stroke:#000000;stroke-width:1px;stroke-linecap:butt;stroke-linejoin:miter;stroke-opacity:1"
       d="m 204.07692,969.36537 c 0,-33.763 0.49771,7.4656 -3.00113,-45.01696 -0.47032,-7.05487 3.36804,-38.2809 0,-45.01697 -0.44738,-0.89477 -2.10637,0.44738 -3.00113,0 -6.18373,-3.09186 -9.82337,-7.83434 -18.00679,-9.00339 -7.37986,-1.05427 -16.70803,1.82525 -24.00905,0 -3.64178,-0.91045 -24.88095,-4.58278 -27.01018,-6.00227 -1.86122,-1.24081 -1.60374,-4.25553 -3.00113,-6.00226 -16.10751,-20.13438 -21.00792,-37.75912 -21.00792,-63.02375 0,-22.02989 1.96744,-67.35317 30.01131,-72.02715 2.9603,-0.49339 6.3191,-1.34215 9.0034,0 23.92777,11.96388 -22.48504,115.16254 42.01583,99.03733 4.14422,-1.03606 15.80745,-9.80519 18.00679,-12.00453 4.47728,-4.47728 0,-22.82656 0,-30.01131 0,-22.29437 -5.09389,-122.90837 3.00113,-135.0509 6.9601,-10.44016 10.45153,-15.00566 24.00905,-15.00566 3.00113,0 6.88127,-2.12212 9.0034,0 2.53714,2.53714 11.20009,18.59463 12.00452,21.00792 4.30474,12.91421 0,104.8839 0,129.04864 0,8.41975 -2.63993,22.09152 0,30.01131 3.78695,11.36084 5.14965,11.15192 12.00452,18.00679 1.58174,1.58173 1.4194,4.42053 3.00114,6.00226 1.30826,1.30826 12.51942,5.48736 15.00565,3.00113 2.91658,-2.91657 1.46927,-8.17487 3.00113,-12.00452 1.66154,-4.15384 4.9172,-7.66428 6.00227,-12.00453 2.70088,-10.80355 -0.42838,-56.59311 6.00226,-63.02375 2.4492,-2.44921 20.61156,-3.39749 24.00905,0 7.57849,7.57849 11.74121,46.07023 9.00339,57.02149 -0.54253,2.17012 -2.68478,3.78783 -3.00113,6.00226 -4.29811,30.0868 2.97819,27.06753 -9.00339,57.0215 -2.25945,5.64862 -1.29599,8.867 -6.00227,12.00452 -10.40269,6.93513 -36.05181,5.9927 -48.0181,3.00113 -1.3725,-0.34313 -1.58638,-3.00113 -3.00113,-3.00113 -1.00037,0 0.44739,2.10637 0,3.00113 -1.89808,3.79617 -6.64911,5.47197 -9.00339,9.00339 -2.84799,4.27199 -2.06697,16.33713 -3.00113,21.00792 -2.02402,10.12009 -6.92316,19.61013 -9.00339,30.01131 -2.91532,14.57658 5.01476,61.99758 0,72.02718 -0.6327,1.2654 -2.72368,1.6138 -3.00114,3.0011 -2.4023,12.0115 0.915,20.0929 -9.00339,30.0113 -5.48193,5.4819 -19.18803,-0.5426 -21.00792,-6.0022 -4.96546,-14.8964 -6.41635,-61.36746 -3.00113,-75.02833 z"
       id="path94" />
    <path
       style="fill:#008000;stroke-width:3.00113"
       d="m 212.96169,1045.8877 c -6.28044,-6.2805 -10.01277,-39.0491 -8.57913,-75.32217 0.42405,-10.72904 0.43594,-35.84599 0.0264,-55.81541 l -0.74456,-36.30806 -11.25424,-4.7398 c -6.18983,-2.60689 -20.70781,-5.41534 -32.26216,-6.24101 -11.55436,-0.82568 -23.0769,-2.30566 -25.60567,-3.28887 -2.52876,-0.9832 -9.219,-10.1937 -14.8672,-20.46777 -8.97804,-16.33106 -10.42716,-21.97872 -11.52356,-44.91083 -1.95824,-40.95824 7.6271,-68.1954 25.58563,-72.7027 13.75238,-3.45163 16.14267,3.60659 15.21747,44.93519 -0.87587,39.12533 2.23423,49.71211 15.87599,54.04184 9.28665,2.94746 25.03833,-0.78601 34.4066,-8.15509 l 8.18629,-6.43934 -2.15618,-63.52289 c -2.64058,-77.79363 -0.86964,-95.7002 10.59884,-107.16868 12.52713,-12.52714 22.24177,-11.18274 30.06973,4.16134 6.1215,11.99914 6.33673,15.73752 5.31297,92.28478 l -1.06697,79.77905 9.00339,11.25415 c 12.75425,15.94269 22.27888,15.44035 29.26103,-1.54326 2.88859,-7.0263 5.25198,-20.33784 5.25198,-29.58119 0,-9.24336 0.85882,-23.07188 1.90849,-30.73006 1.88835,-13.77702 2.02842,-13.92396 13.27235,-13.92396 10.3978,0 11.66863,0.9235 14.94907,10.86331 6.84341,20.73574 1.95604,86.62949 -7.97918,107.57882 -6.89378,14.53617 -20.9712,19.26344 -42.61556,14.31051 -12.28759,-2.8118 -14.08048,-2.49525 -18.9616,3.34783 -2.96497,3.54929 -5.43578,10.04684 -5.4907,14.43899 -0.0549,4.39215 -2.77644,16.54673 -6.04785,27.01019 -5.06064,16.18624 -5.66778,23.99515 -4.06968,52.34306 1.32993,23.59083 0.87598,33.93813 -1.55482,35.44043 -1.88823,1.1669 -3.43315,6.4684 -3.43315,11.7808 0,9.7885 -6.99314,22.9992 -12.1747,22.9992 -1.55702,0 -5.39972,-2.5688 -8.53933,-5.7084 z"
       id="path96" />
  </g>
</svg>
