<svg enable-background="new 0 0 198.13 197.58" height="94" viewBox="0 0 68 94" width="68" xmlns="http://www.w3.org/2000/svg" xmlns:xlink="http://www.w3.org/1999/xlink"><linearGradient id="a"><stop offset="0" stop-color="#871101"/><stop offset=".99" stop-color="#911209"/><stop offset="1" stop-color="#911209"/></linearGradient><linearGradient id="b" gradientUnits="userSpaceOnUse" x1="194.895" x2="141.0276" xlink:href="#a" y1="153.5576" y2="117.4093"/><linearGradient id="c" gradientUnits="userSpaceOnUse" x1="151.79539" x2="97.929703" xlink:href="#a" y1="217.7852" y2="181.638"/><linearGradient id="d" gradientUnits="userSpaceOnUse" x1="38.696301" x2="47.046902" y1="127.3906" y2="181.66141"><stop offset="0" stop-color="#fff"/><stop offset=".23" stop-color="#e57252"/><stop offset=".46" stop-color="#de3b20"/><stop offset=".99" stop-color="#a60003"/><stop offset="1" stop-color="#a60003"/></linearGradient><linearGradient id="e" gradientUnits="userSpaceOnUse" x1="96.132797" x2="99.209602" y1="76.715302" y2="132.1021"><stop offset="0" stop-color="#fff"/><stop offset=".23" stop-color="#e4714e"/><stop offset=".56" stop-color="#be1a0d"/><stop offset=".99" stop-color="#a80d00"/><stop offset="1" stop-color="#a80d00"/></linearGradient><linearGradient id="f" gradientUnits="userSpaceOnUse" x1="147.103" x2="156.3141" y1="25.521" y2="65.216202"><stop offset="0" stop-color="#fff"/><stop offset=".18" stop-color="#e46342"/><stop offset=".4" stop-color="#c82410"/><stop offset=".99" stop-color="#a80d00"/><stop offset="1" stop-color="#a80d00"/></linearGradient><linearGradient id="g" gradientUnits="userSpaceOnUse" x1="118.9761" x2="158.66859" y1="11.5415" y2="-8.3048"><stop offset="0" stop-color="#fff"/><stop offset=".54" stop-color="#c81f11"/><stop offset=".99" stop-color="#bf0905"/><stop offset="1" stop-color="#bf0905"/></linearGradient><linearGradient id="h" gradientUnits="userSpaceOnUse" x1="3.9033" x2="7.1702" y1="113.5547" y2="146.2628"><stop offset="0" stop-color="#fff"/><stop offset=".31" stop-color="#de4024"/><stop offset=".99" stop-color="#bf190b"/><stop offset="1" stop-color="#bf190b"/></linearGradient><linearGradient id="i" gradientUnits="userSpaceOnUse" x1="-18.5557" x2="135.0152" y1="155.10451" y2="-2.8093"><stop offset="0" stop-color="#bd0012"/><stop offset=".07" stop-color="#fff"/><stop offset=".17" stop-color="#fff"/><stop offset=".27" stop-color="#c82f1c"/><stop offset=".33" stop-color="#820c01"/><stop offset=".46" stop-color="#a31601"/><stop offset=".72" stop-color="#b31301"/><stop offset=".99" stop-color="#e82609"/><stop offset="1" stop-color="#e82609"/></linearGradient><linearGradient id="j" gradientUnits="userSpaceOnUse" x1="99.074699" x2="52.817699" y1="171.0332" y2="159.61659"><stop offset="0" stop-color="#8c0c01"/><stop offset=".54" stop-color="#990c00"/><stop offset=".99" stop-color="#a80d0e"/><stop offset="1" stop-color="#a80d0e"/></linearGradient><linearGradient id="k" gradientUnits="userSpaceOnUse" x1="178.52589" x2="137.43269" y1="115.5146" y2="78.683998"><stop offset="0" stop-color="#7e110b"/><stop offset=".99" stop-color="#9e0c00"/><stop offset="1" stop-color="#9e0c00"/></linearGradient><linearGradient id="l" gradientUnits="userSpaceOnUse" x1="193.6235" x2="173.15421" y1="47.937" y2="26.053801"><stop offset="0" stop-color="#79130d"/><stop offset=".99" stop-color="#9e120b"/><stop offset="1" stop-color="#9e120b"/></linearGradient><radialGradient id="m" cx="143.8315" cy="79.388199" gradientUnits="userSpaceOnUse" r="50.357601"><stop offset="0" stop-color="#a80d00"/><stop offset=".99" stop-color="#7e0e08"/><stop offset="1" stop-color="#7e0e08"/></radialGradient><radialGradient id="n" cx="74.0923" cy="145.75101" gradientUnits="userSpaceOnUse" r="66.943703"><stop offset="0" stop-color="#a30c00"/><stop offset=".99" stop-color="#800e08"/><stop offset="1" stop-color="#800e08"/></radialGradient><linearGradient id="o" gradientUnits="userSpaceOnUse" x1="26.669901" x2="9.9887" y1="197.33591" y2="140.742"><stop offset="0" stop-color="#8b2114"/><stop offset=".43" stop-color="#9e100a"/><stop offset=".99" stop-color="#b3100c"/><stop offset="1" stop-color="#b3100c"/></linearGradient><linearGradient id="p" gradientUnits="userSpaceOnUse" x1="154.6411" x2="192.039" y1="9.7979" y2="26.305901"><stop offset="0" stop-color="#b31000"/><stop offset=".44" stop-color="#910f08"/><stop offset=".99" stop-color="#791c12"/><stop offset="1" stop-color="#791c12"/></linearGradient><linearGradient id="q" gradientUnits="userSpaceOnUse" x1="174.0737" x2="132.27631" y1="215.5488" y2="141.7533"><stop offset="0" stop-color="#fb7655"/><stop offset=".41" stop-color="#e42b1e"/><stop offset=".99" stop-color="#900"/><stop offset="1" stop-color="#900"/></linearGradient><g clip-rule="evenodd" fill-rule="evenodd" transform="matrix(.31034703 0 0 .31034703 1.594712 1.994132)"><path d="m153.5 130.41-113.12 67.17 146.469-9.939 11.281-147.691z" fill="url(#q)"/><path d="m174.5 100.65-34.291 45.28 46.88 41.61z" fill="url(#b)"/><path d="m95.03 180.3-54.16 17.091 146.389-9.851z" fill="url(#c)"/><path d="m64.04 121.93-50.7 10.841 27.66 64.639z" fill="url(#d)"/><path d="m119 63.14-60.67 56.87 81.87 26.17z" fill="url(#e)"/><path d="m135.97 17.47-15.97 51.63 73.32-4.79z" fill="url(#f)"/><path d="m132.77 19.41-21.28-18.89 55.01.25z" fill="url(#g)"/><path d="m14.13 132.32-11.43-30.7-2.7 56.47z" fill="url(#h)"/><path d="m1.94 100.65 11.5 32.62 49.97-11.211 57.05-53.02 16.1-51.139-25.351-17.9-43.1 16.13c-13.579 12.63-39.929 37.62-40.879 38.09-.94.48-17.4 31.59-25.29 46.43z" fill="#fff"/><path d="m42.32 42.05c29.43-29.18 67.37-46.42 81.93-31.73 14.551 14.69-.88 50.39-30.31 79.56s-66.9 47.36-81.45 32.67c-14.56-14.68.4-51.33 29.83-80.5z" fill="url(#i)"/><path d="m41 197.38 22.86-75.72 75.92 24.39c-27.45 25.74-57.98 47.5-98.78 51.33z" fill="url(#j)"/><path d="m120.56 68.89 19.49 77.2c22.93-24.11 43.51-50.03 53.589-82.09z" fill="url(#k)"/><path d="m193.44 64.39c7.8-23.54 9.6-57.31-27.181-63.58l-30.18 16.67z" fill="url(#l)"/><path d="m0 157.75c1.08 38.851 29.11 39.43 41.05 39.771l-27.58-64.411z" fill="#9e1209"/><path d="m120.669 69.01c17.62 10.83 53.131 32.58 53.851 32.98 1.119.63 15.31-23.93 18.53-37.81z" fill="url(#m)"/><path d="m63.83 121.66 30.56 58.96c18.07-9.8 32.22-21.74 45.18-34.53z" fill="url(#n)"/><path d="m13.35 133.19-4.33 51.56c8.17 11.16 19.41 12.13 31.2 11.26-8.53-21.23-25.57-63.68-26.87-62.82z" fill="url(#o)"/><path d="m135.9 17.61 60.71 8.52c-3.24-13.73-13.19-22.59-30.15-25.36z" fill="url(#p)"/></g><path d="m20.11709 86.98219h-5.019525c-1.112542-1.743255-2.119954-3.249986-3.022228-4.520201-.893536-1.270206-1.865905-2.579837-2.9171062-3.928896h-1.905313v5.913054c-.0000084.306605.048187.578167.1445371.814687.096358.227763.3022185.402965.6175898.525605.157673.06132.4336113.118262.8278233.170821.3941951.05256.7270753.08322.998649.09198v.932949h-7.8840713v-.932949c.2102419-.01752.5124604-.04818.9066724-.09198.402958-.0438.6832777-.100739.8409676-.170821.2627939-.11388.4511371-.280322.5650209-.499325.1226383-.218999.1839616-.499322.1839616-.840967v-13.481765c0-.306583-.043814-.578148-.1314011-.814687-.0876036-.236506-.2934641-.416086-.6175814-.538741-.2190132-.078799-.5037144-.148902-.854112-.210242-.3504059-.070052-.6482514-.113867-.893528-.131401v-.932953h8.6067823c.78839.000026 1.528618.08326 2.220676.249667.692032.157698 1.318376.416119 1.879041.775263.543105.350422.976733.810322 1.300867 1.379716.324109.560657.486172 1.239561.486189 2.036715-.000017.718342-.109519 1.353447-.328507 1.905319-.219013.551897-.543139 1.029321-.972369 1.432273-.39422.376694-.867265.705197-1.419133.985509-.551893.271572-1.16072.503715-1.826472.696426.919791 1.217659 1.681918 2.242588 2.286381 3.074788.613183.832213 1.362174 1.844001 2.246956 3.035368.385424.525607.731448.91543 1.038073 1.16947.315338.245285.626328.446766.932945.604446.227742.113882.512443.201483.854111.262802.341618.06132.626319.09636.854104.105121zm-6.911703-13.902246c-.000008-1.130032-.324134-2.02356-.972368-2.680583-.64826-.665752-1.563687-.998632-2.746281-.998649h-2.2338202v8.002331h1.7213514c1.2088828.000009 2.2162858-.385433 3.0222278-1.156331.805916-.779635 1.208882-1.835224 1.20889-3.166768"/><path d="m34.374123 86.745667-4.217982.289083-.197098-.183962v-1.642514h-.0788c-.210259.219003-.446781.455525-.709567.709566-.262819.245283-.565038.468664-.906672.670146-.394212.236522-.775271.416104-1.143186.538745-.367932.122641-.889155.183962-1.563679.183962-1.147576 0-2.023578-.372304-2.628024-1.116911-.595691-.753364-.893528-1.843993-.893528-3.271889v-6.202136c0-.315352-.06131-.578155-.183961-.788407-.113884-.218991-.284701-.407332-.512461-.565026-.15769-.105109-.354787-.17957-.591309-.223382-.236522-.05255-.486189-.08759-.748983-.10512v-.854108l4.323095-.315363.197106.183962v9.000981c-.000008.937332.210234 1.642517.630726 2.115559.420475.473046.924181.709567 1.511109.709567.481799 0 .911037-.07446 1.287732-.223382.376678-.148921.692041-.324122.946088-.525605.236514-.18396.442375-.376681.61759-.578165.183945-.21024.324109-.402961.420484-.578166v-7.345326c-.000017-.289072-.06131-.543114-.183962-.762127-.122655-.227751-.29348-.420472-.512468-.578165-.15769-.105109-.394212-.16643-.709567-.183962-.306608-.02627-.652633-.04817-1.038065-.0657v-.854107l4.704163-.315363.197097.183961v10.288713c-.000017.297845.06131.551888.183962.762127.12263.210244.293447.389825.512469.538745.157664.09636.346007.162063.565021.197102.218987.02628.459891.04381.72271.05256v.854107"/><path d="m49.143617 80.490971c-.000017 1.944742-.613225 3.578495-1.839617 4.901264-1.226425 1.322772-2.649939 1.984158-4.270543 1.984158-.709574 0-1.410378-.109501-2.102419-.328503-.683294-.219001-1.327156-.512464-1.931593-.880388l-.972369 1.511114-.814687-.183962c.04381-.648245.07443-1.427892.09198-2.338941.01749-.911045.02624-1.791433.02624-2.641164v-12.824754c0-.297829-.07005-.595666-.210242-.893528-.131401-.297829-.302227-.512444-.512461-.64387-.166444-.113859-.446772-.197081-.840967-.249658-.385449-.06131-.696431-.100723-.932953-.118266v-.840967l4.756723-.302219.183962.197098v8.54108l.09198.02628c.543114-.578154 1.134423-1.011777 1.773912-1.300872.648234-.289069 1.283342-.43361 1.905321-.433624 1.594323.000014 2.925853.630738 3.994596 1.892177 1.06871 1.261462 1.603078 2.903975 1.603095 4.927545m-2.746289.09198c-.000009-.648239-.07005-1.309624-.210242-1.984158-.140173-.674518-.359177-1.261442-.657006-1.760776-.297854-.508074-.687676-.919798-1.169466-1.235171-.481816-.315351-1.059981-.473033-1.734496-.473045-.613217.000012-1.151958.122653-1.616239.367924-.455527.236533-.867256.560656-1.235171.972368v7.542429c.05256.210244.1533.455527.302227.735846.157673.280325.367915.547507.630725.801548.262794.245283.560632.446765.893529.604445.332871.148922.740211.223383 1.222026.223382 1.068719.000001 1.931585-.516843 2.588608-1.550534.656989-1.033686.985496-2.448438.985505-4.244258"/><path d="m50.089705 91.213308c0-.438008.118257-.797171.354779-1.07749.245285-.271565.547504-.407346.906673-.407344.28032-.000002.521215.05256.722702.157682.201479.105117.381059.240899.538749.407344.131393.131397.271557.310978.420484.538744.14891.227759.267175.4161.354779.565026.438001-.236527.959225-.854112 1.563678-1.852757.6132-.998651 1.055583-1.874657 1.327148-2.628024-.832213-2.076136-1.585577-3.933272-2.2601-5.57141-.674532-1.638128-1.379717-3.333202-2.115555-5.085226-.166444-.402953-.446773-.713936-.840968-.932949-.394212-.22775-.788415-.372291-1.18261-.433624v-.867248h5.913053v.919809c-.262811.0088-.578174.06571-.946089.170821-.367931.09637-.551893.232154-.551885.407344-.000008.000012.02187.06571.06568.197102.05256.131412.09636.258433.131401.381063.33288.867258.840959 2.119948 1.524254 3.758074.683278 1.629381 1.213264 2.934631 1.589959 3.915756.394195-.937324.801534-1.905313 1.222026-2.903967.429239-1.007402.906656-2.194391 1.432278-3.560972.06131-.166432.14891-.394193.262802-.683286.113867-.297832.170809-.551874.170817-.762127-.000008-.227751-.201495-.437993-.604445-.630726-.394212-.201469-.770898-.32411-1.13005-.367923v-.840968h4.809283v.814688c-.262819.04381-.608835.197113-1.038065.459904-.429264.254054-.748999.617596-.959233 1.09063-1.042463 2.41779-1.971026 4.620948-2.785705 6.60948-.805933 1.98854-1.419141 3.451471-1.839617 4.388799-.551893 1.226409-1.046836 2.181257-1.484829 2.864546-.429255.692043-.849739 1.235167-1.261451 1.629375-.402975.367918-.770899.6132-1.10377.735847-.324135.131395-.661396.197095-1.011794.197101-.683286-.000006-1.222035-.162067-1.61623-.486184-.385449-.324128-.578165-.696431-.578165-1.11691"/></svg>